M48
;Layer_Color=9474304
;FILE_FORMAT=4:4
METRIC,LZ
;TYPE=PLATED
T1F00S00C0.3810
T3F00S00C0.7112
T4F00S00C0.7620
T5F00S00C0.8000
T6F00S00C0.8128
T7F00S00C0.9000
T8F00S00C1.0000
T10F00S00C1.5240
%
T01
X006565Y00323
X0069Y00312
X0074875Y00323
X00768125Y00347
X00819Y00443
X008485Y0047475
X00929Y00475
X00928686Y00485871
X00929453Y00617745
X009295Y0064975
X0069325Y0058075
X00708Y005115
X0077675Y004855
T03
X00597Y00157
X00406Y00428
X00648Y00581
X00261Y00429
X00123
T04
X0091011Y0057225
X0093675
X0096215
T05
X0105825Y00263
Y002884
Y003138
Y003392
T06
X010495Y00639776
Y00665176
X0077975Y0065985
Y0068525
T07
X0103225Y0048278
Y0056025
T08
X00163654Y00334367
X00189054
X00303354
X00328754
X00443054
X00468454
X00603Y0032325
Y0026483
X0082975Y0033775
Y0039617
X00468454Y00410567
X00443054
X00453854Y00524959
X00403054Y00550359
Y00651959
X00504654
Y00550359
X00364954
X00314154Y00524959
X00263354Y00550359
X00225254
X00174454Y00524959
X00123654Y00550359
Y00651959
X00225254
X00263354
X00364954
X00328754Y00410567
X00303354
X00189054
X00163654
T10
X0082635Y00761
X0087715
X00504654Y00728909
X00453854
X00364954
X00314154
X00225254
X00174454
M30
