M48
;Layer_Color=9474304
;FILE_FORMAT=4:4
METRIC,LZ
;TYPE=PLATED
T2F00S00C0.6000
T9F00S00C1.0000
%
G90
G05
T02
G00X006468Y00110162
M15
G01Y00116162
M16
G00X006468Y00149462
M15
G01Y00160462
M16
G00X007332Y00149462
M15
G01Y00160462
M16
G00X007332Y00110162
M15
G01Y00116162
M16
T09
G00X00947Y00719
M15
G01Y00717
M16
G00X00947Y00754
M15
G01Y00752
M16
G00X00947Y00786
M15
G01Y00784
M16
G00X01003Y00786
M15
G01Y00784
M16
G00X01003Y00754
M15
G01Y00752
M16
G00X01003Y00719
M15
G01Y00717
M16
M17
M30
