%TF.GenerationSoftware,Altium Limited,Altium Designer,22.0.2 (36)*%
G04 Layer_Color=32768*
%FSLAX45Y45*%
%MOMM*%
%TF.SameCoordinates,D2D0E374-18DE-4B15-8EA8-0B9E4DC8859C*%
%TF.FilePolarity,Positive*%
%TF.FileFunction,Other,Mechanical_15*%
%TF.Part,Single*%
G01*
G75*
%TA.AperFunction,NonConductor*%
%ADD63C,0.10000*%
%ADD83C,0.05000*%
D63*
X8885000Y6717500D02*
X8975000D01*
X8930000Y6672500D02*
Y6762500D01*
X6997500Y2522500D02*
Y2622500D01*
X6947500Y2572500D02*
X7047500D01*
X7905000Y3796500D02*
X7995000D01*
X7950000Y3751500D02*
Y3841501D01*
X6207305Y1396120D02*
X6297304D01*
X6252304Y1351119D02*
Y1441120D01*
X1790042Y3042917D02*
Y3132917D01*
X1745042Y3087917D02*
X1835042D01*
X3187042Y3042917D02*
Y3132917D01*
X3142042Y3087917D02*
X3232042D01*
X9449734Y6633500D02*
Y6723500D01*
X9404734Y6678500D02*
X9494734D01*
X4574542Y3053800D02*
Y3143800D01*
X4529542Y3098800D02*
X4619542D01*
X8031500Y5045761D02*
Y5135761D01*
X7986500Y5090761D02*
X8076500D01*
X8031499Y6135760D02*
Y6225760D01*
X7986499Y6180760D02*
X8076499D01*
X8270835Y2910000D02*
X8360835D01*
X8315835Y2865000D02*
Y2955000D01*
X8070000Y2865000D02*
Y2955000D01*
X8025000Y2910000D02*
X8115000D01*
X7552684Y1351119D02*
Y1441120D01*
X7507685Y1396120D02*
X7597684D01*
X4874542Y4472355D02*
X4964542D01*
X4919542Y4427355D02*
Y4517355D01*
X3477542Y4472355D02*
X3567542D01*
X3522542Y4427355D02*
Y4517355D01*
X2080542Y4472355D02*
X2170542D01*
X2125542Y4427355D02*
Y4517355D01*
X10060000Y6480000D02*
Y6570000D01*
X10015000Y6525000D02*
X10105000D01*
X9425500Y5164760D02*
X9515500D01*
X9470500Y5119760D02*
Y5209760D01*
X8483619Y6035260D02*
Y6125260D01*
X8438619Y6080260D02*
X8528619D01*
X8483620Y5146260D02*
Y5236261D01*
X8438620Y5191260D02*
X8528620D01*
X8098284Y1562500D02*
Y1662500D01*
X8048284Y1612500D02*
X8148284D01*
X5690000Y3033600D02*
Y3123600D01*
X5645000Y3078600D02*
X5735000D01*
X8435000Y6672500D02*
Y6762500D01*
X8390000Y6717500D02*
X8480000D01*
X9742500Y6525000D02*
X9832500D01*
X9787500Y6480000D02*
Y6570000D01*
X8635000Y6717500D02*
X8725000D01*
X8680000Y6672500D02*
Y6762500D01*
X8140000Y6717500D02*
X8230000D01*
X8185000Y6672500D02*
Y6762500D01*
D83*
X9031600Y6488900D02*
Y6946100D01*
X8828400D02*
X9031600D01*
X8828400Y6488900D02*
X9031600D01*
X8828400D02*
Y6946100D01*
X6610000Y2047500D02*
X7385000D01*
X6610000Y3097500D02*
X7385000D01*
Y2047500D02*
Y3097500D01*
X6610000Y2047500D02*
Y3097500D01*
X8051600Y3567900D02*
Y4025100D01*
X7848400D02*
X8051600D01*
X7848400Y3567900D02*
X8051600D01*
X7848400D02*
Y4025100D01*
X6353904Y1167520D02*
Y1624720D01*
X6150704D02*
X6353904D01*
X6150704Y1167520D02*
X6353904D01*
X6150704D02*
Y1624720D01*
X1561442Y2986317D02*
X2018642D01*
X1561442Y3189517D02*
X2018642D01*
Y2986317D02*
Y3189517D01*
X1561442Y2986317D02*
Y3189517D01*
X2958442Y2986317D02*
X3415642D01*
X2958442Y3189517D02*
X3415642D01*
Y2986317D02*
Y3189517D01*
X2958442Y2986317D02*
Y3189517D01*
X9221134Y6576900D02*
X9678334D01*
X9221134Y6780100D02*
X9678334D01*
Y6576900D02*
Y6780100D01*
X9221134Y6576900D02*
Y6780100D01*
X4345942Y2997200D02*
X4803142D01*
X4345942Y3200400D02*
X4803142D01*
Y2997200D02*
Y3200400D01*
X4345942Y2997200D02*
Y3200400D01*
X7802900Y4989161D02*
X8260100D01*
X7802900Y5192361D02*
X8260100D01*
Y4989161D02*
Y5192361D01*
X7802900Y4989161D02*
Y5192361D01*
X7802899Y6079160D02*
X8260099D01*
X7802899Y6282360D02*
X8260099D01*
Y6079160D02*
Y6282360D01*
X7802899Y6079160D02*
Y6282360D01*
X8417435Y2681400D02*
Y3138600D01*
X8214235Y2681400D02*
Y3138600D01*
X8417435D01*
X8214235Y2681400D02*
X8417435D01*
X7968400Y3138600D02*
X8171600D01*
X7968400Y2681400D02*
X8171600D01*
Y3138600D01*
X7968400Y2681400D02*
Y3138600D01*
X7451084Y1167520D02*
X7654284D01*
X7451084Y1624720D02*
X7654284D01*
X7451084Y1167520D02*
Y1624720D01*
X7654284Y1167520D02*
Y1624720D01*
X4817942Y4243755D02*
Y4700955D01*
X5021142Y4243755D02*
Y4700955D01*
X4817942Y4243755D02*
X5021142D01*
X4817942Y4700955D02*
X5021142D01*
X3420942Y4243755D02*
Y4700955D01*
X3624142Y4243755D02*
Y4700955D01*
X3420942Y4243755D02*
X3624142D01*
X3420942Y4700955D02*
X3624142D01*
X2023942Y4243755D02*
Y4700955D01*
X2227142Y4243755D02*
Y4700955D01*
X2023942Y4243755D02*
X2227142D01*
X2023942Y4700955D02*
X2227142D01*
X9958400Y6753600D02*
X10161600D01*
X9958400Y6296400D02*
X10161600D01*
Y6753600D01*
X9958400Y6296400D02*
Y6753600D01*
X9699100Y5063160D02*
Y5266360D01*
X9241900Y5063160D02*
Y5266360D01*
Y5063160D02*
X9699100D01*
X9241900Y5266360D02*
X9699100D01*
X8382019Y5851660D02*
X8585219D01*
X8382019Y6308860D02*
X8585219D01*
X8382019Y5851660D02*
Y6308860D01*
X8585219Y5851660D02*
Y6308860D01*
X8382020Y5419860D02*
X8585220D01*
X8382020Y4962660D02*
X8585220D01*
Y5419860D01*
X8382020Y4962660D02*
Y5419860D01*
X7738284Y2057500D02*
X8458284D01*
X7738284Y1167500D02*
X8458284D01*
Y2057500D01*
X7738284Y1167500D02*
Y2057500D01*
X5588400Y3307200D02*
X5791600D01*
X5588400Y2850000D02*
X5791600D01*
Y3307200D01*
X5588400Y2850000D02*
Y3307200D01*
X8333400Y6946100D02*
X8536600D01*
X8333400Y6488900D02*
X8536600D01*
Y6946100D01*
X8333400Y6488900D02*
Y6946100D01*
X9889100Y6296400D02*
Y6753600D01*
X9685900Y6296400D02*
Y6753600D01*
X9889100D01*
X9685900Y6296400D02*
X9889100D01*
X8578400Y6488900D02*
Y6946100D01*
X8781600Y6488900D02*
Y6946100D01*
X8578400Y6488900D02*
X8781600D01*
X8578400Y6946100D02*
X8781600D01*
X8286600Y6488900D02*
Y6946100D01*
X8083400Y6488900D02*
Y6946100D01*
X8286600D01*
X8083400Y6488900D02*
X8286600D01*
%TF.MD5,71680914146a88f75368a65bc0a63dab*%
M02*
