%TF.GenerationSoftware,Altium Limited,Altium Designer,22.0.2 (36)*%
G04 Layer_Color=16711935*
%FSLAX45Y45*%
%MOMM*%
%TF.SameCoordinates,D2D0E374-18DE-4B15-8EA8-0B9E4DC8859C*%
%TF.FilePolarity,Negative*%
%TF.FileFunction,Soldermask,Bot*%
%TF.Part,Single*%
G01*
G75*
%TA.AperFunction,ComponentPad*%
G04:AMPARAMS|DCode=46|XSize=2.25mm|YSize=1.15mm|CornerRadius=0.325mm|HoleSize=0mm|Usage=FLASHONLY|Rotation=90.000|XOffset=0mm|YOffset=0mm|HoleType=Round|Shape=RoundedRectangle|*
%AMROUNDEDRECTD46*
21,1,2.25000,0.50000,0,0,90.0*
21,1,1.60000,1.15000,0,0,90.0*
1,1,0.65000,0.25000,0.80000*
1,1,0.65000,0.25000,-0.80000*
1,1,0.65000,-0.25000,-0.80000*
1,1,0.65000,-0.25000,0.80000*
%
%ADD46ROUNDEDRECTD46*%
G04:AMPARAMS|DCode=47|XSize=1.75mm|YSize=1.15mm|CornerRadius=0.325mm|HoleSize=0mm|Usage=FLASHONLY|Rotation=90.000|XOffset=0mm|YOffset=0mm|HoleType=Round|Shape=RoundedRectangle|*
%AMROUNDEDRECTD47*
21,1,1.75000,0.50000,0,0,90.0*
21,1,1.10000,1.15000,0,0,90.0*
1,1,0.65000,0.25000,0.55000*
1,1,0.65000,0.25000,-0.55000*
1,1,0.65000,-0.25000,-0.55000*
1,1,0.65000,-0.25000,0.55000*
%
%ADD47ROUNDEDRECTD47*%
%ADD48R,2.15000X2.15000*%
%ADD49O,1.65000X2.45000*%
G04:AMPARAMS|DCode=50|XSize=1.75mm|YSize=2.15mm|CornerRadius=0.475mm|HoleSize=0mm|Usage=FLASHONLY|Rotation=90.000|XOffset=0mm|YOffset=0mm|HoleType=Round|Shape=RoundedRectangle|*
%AMROUNDEDRECTD50*
21,1,1.75000,1.20000,0,0,90.0*
21,1,0.80000,2.15000,0,0,90.0*
1,1,0.95000,0.60000,0.40000*
1,1,0.95000,0.60000,-0.40000*
1,1,0.95000,-0.60000,-0.40000*
1,1,0.95000,-0.60000,0.40000*
%
%ADD50ROUNDEDRECTD50*%
%ADD51C,1.95000*%
%ADD52C,3.19800*%
%ADD53R,1.90000X1.90000*%
%ADD54R,1.35000X2.15000*%
%ADD55O,1.85000X3.15000*%
%TA.AperFunction,ViaPad*%
%ADD56C,0.91200*%
%ADD57C,1.42000*%
D46*
X6467999Y1549619D02*
D03*
X7331999D02*
D03*
D47*
Y1131620D02*
D03*
X6467999D02*
D03*
D48*
X10322500Y4827800D02*
D03*
Y5602500D02*
D03*
D49*
X8297500Y3377500D02*
D03*
Y3961700D02*
D03*
X6030000Y2648300D02*
D03*
Y3232500D02*
D03*
D50*
X10582500Y2630000D02*
D03*
Y2884000D02*
D03*
Y3392000D02*
D03*
Y3138000D02*
D03*
D51*
X10030000Y7180000D02*
D03*
Y7530000D02*
D03*
Y7850000D02*
D03*
X9470000Y7180000D02*
D03*
Y7530000D02*
D03*
Y7850000D02*
D03*
X10495000Y6397762D02*
D03*
Y6651762D02*
D03*
X7797500Y6852500D02*
D03*
Y6598500D02*
D03*
D52*
X1744541Y7289093D02*
D03*
X2252542D02*
D03*
X5046542D02*
D03*
X4538541D02*
D03*
X3649542D02*
D03*
X3141541D02*
D03*
X8771500Y7610000D02*
D03*
X8263500D02*
D03*
D53*
X1744542Y5249593D02*
D03*
X2252542Y6519593D02*
D03*
Y5503593D02*
D03*
X1236542D02*
D03*
Y6519593D02*
D03*
X3141542Y5249593D02*
D03*
X3649542Y6519593D02*
D03*
Y5503593D02*
D03*
X2633542D02*
D03*
Y6519593D02*
D03*
X4030542D02*
D03*
Y5503593D02*
D03*
X5046542D02*
D03*
Y6519593D02*
D03*
X4538542Y5249593D02*
D03*
D54*
X1636542Y3343670D02*
D03*
X1890542D02*
D03*
X1636542Y4105670D02*
D03*
X1890542D02*
D03*
X3033542Y3343670D02*
D03*
X3287542D02*
D03*
X3033542Y4105670D02*
D03*
X3287542D02*
D03*
X4430542Y3343670D02*
D03*
X4684542D02*
D03*
X4430542Y4105670D02*
D03*
X4684542D02*
D03*
D55*
X9621500Y5722500D02*
D03*
X9101104D02*
D03*
X9367500D02*
D03*
D56*
X7681250Y3470000D02*
D03*
X9290000Y4750000D02*
D03*
X7487500Y3230000D02*
D03*
X8190000Y4430000D02*
D03*
X6900000Y3120000D02*
D03*
X6565000Y3230000D02*
D03*
X9294533Y6177449D02*
D03*
X9295000Y6497500D02*
D03*
X7080000Y5115000D02*
D03*
X6932500Y5807500D02*
D03*
X8485000Y4747500D02*
D03*
X9286862Y4858705D02*
D03*
X7767500Y4855000D02*
D03*
D57*
X6480000Y5810000D02*
D03*
X1230000Y4290000D02*
D03*
X5970000Y1570000D02*
D03*
X4060000Y4280000D02*
D03*
X2610000Y4290000D02*
D03*
%TF.MD5,4103ec376b191de80993414baf9f25d6*%
M02*
