%TF.GenerationSoftware,Altium Limited,Altium Designer,22.0.2 (36)*%
G04 Layer_Color=16711935*
%FSLAX45Y45*%
%MOMM*%
%TF.SameCoordinates,D2D0E374-18DE-4B15-8EA8-0B9E4DC8859C*%
%TF.FilePolarity,Positive*%
%TF.FileFunction,Other,Mechanical_1*%
%TF.Part,Single*%
G01*
G75*
%TA.AperFunction,NonConductor*%
%ADD58C,0.25400*%
D58*
X1912035Y1534434D02*
G03*
X1912035Y1534434I-250000J0D01*
G01*
X10328283Y1372344D02*
G03*
X10328283Y1372344I-250000J0D01*
G01*
X10860968Y7886612D02*
G03*
X10796659Y7937923I-287134J-293911D01*
G01*
X10796659Y7937923D02*
G03*
X10782650Y7946576I-225076J-348708D01*
G01*
X10762417Y7957788D02*
G03*
X10753809Y7962132I-197370J-380388D01*
G01*
D02*
G03*
X10745994Y7965870I-190855J-388994D01*
G01*
X10997368Y7628989D02*
G03*
X10994568Y7640777I-637389J-145188D01*
G01*
X11006774Y7578824D02*
G03*
X10997368Y7628989I-654257J-96708D01*
G01*
X10900322Y7842440D02*
G03*
X10895257Y7848848I-349907J-271346D01*
G01*
X10895258D02*
G03*
X10890043Y7855200I-341088J-274731D01*
G01*
X10890043Y7855199D02*
G03*
X10884070Y7862184I-332246J-278045D01*
G01*
D02*
G03*
X10877907Y7869088I-322834J-282026D01*
G01*
X10877907Y7869088D02*
G03*
X10870255Y7877256I-313344J-285890D01*
G01*
X10870255D02*
G03*
X10860968Y7886611I-302382J-290871D01*
G01*
X10782650Y7946576D02*
G03*
X10771755Y7952794I-213308J-361148D01*
G01*
X10745994Y7965870D02*
G03*
X10739028Y7969042I-185021J-396978D01*
G01*
X10771755Y7952794D02*
G03*
X10762417Y7957787I-204578J-371290D01*
G01*
X10976435Y1756546D02*
G03*
X10982036Y1780122I-1269178J313951D01*
G01*
X10982035Y1780121D02*
G03*
X11000847Y1880453I-1289702J293747D01*
G01*
X10777815Y1340403D02*
G03*
X10787944Y1353219I-689684J555509D01*
G01*
X10767385Y1327701D02*
G03*
X10777815Y1340403I-671746J562164D01*
G01*
X10755441Y1313731D02*
G03*
X10767386Y1327701I-652547J570060D01*
G01*
X10743114Y1299924D02*
G03*
X10755441Y1313731I-633342J577859D01*
G01*
X10727810Y1283588D02*
G03*
X10743114Y1299924I-611384J588116D01*
G01*
X10709235Y1264877D02*
G03*
X10727810Y1283589I-586189J600453D01*
G01*
X10580619Y1162254D02*
G03*
X10709235Y1264877I-445652J690445D01*
G01*
X10552600Y1144947D02*
G03*
X10580619Y1162254I-422133J714722D01*
G01*
X10530810Y1132513D02*
G03*
X10552600Y1144947I-404826J734732D01*
G01*
X10512134Y1122524D02*
G03*
X10530810Y1132512I-390480J752567D01*
G01*
X10465357Y1100015D02*
G03*
X10479288Y1106360I-356110J800302D01*
G01*
X10494918Y1113836D02*
G03*
X10512134Y1122524I-377525J769463D01*
G01*
X10479288Y1106360D02*
G03*
X10494918Y1113836I-366081J785465D01*
G01*
X1291421Y7971252D02*
G03*
X1284369Y7968145I174392J-405454D01*
G01*
X1143158Y7864264D02*
G03*
X1137129Y7857303I323372J-286187D01*
G01*
X1284369Y7968145D02*
G03*
X1277438Y7964946I179517J-398076D01*
G01*
D02*
G03*
X1269661Y7961179I184501J-390754D01*
G01*
D02*
G03*
X1261097Y7956803I190224J-382858D01*
G01*
Y7956803D02*
G03*
X1251806Y7951774I196707J-374520D01*
G01*
D02*
G03*
X1240078Y7944985I203810J-365575D01*
G01*
Y7944985D02*
G03*
X1180551Y7901535I211406J-352132D01*
G01*
X1180551D02*
G03*
X1167158Y7889248I273134J-311172D01*
G01*
D02*
G03*
X1157759Y7879948I289486J-301979D01*
G01*
D02*
G03*
X1150013Y7871825I301987J-295720D01*
G01*
D02*
G03*
X1143159Y7864264I313041J-290668D01*
G01*
X1137129Y7857303D02*
G03*
X1131864Y7850972I332918J-282208D01*
G01*
D02*
G03*
X1126750Y7844582I341835J-278856D01*
G01*
X1029864Y7636809D02*
G03*
X1020512Y7590825I642919J-154690D01*
G01*
X1024552Y1880453D02*
G03*
X1043364Y1780121I1308514J193415D01*
G01*
X1043364Y1780122D02*
G03*
X1048965Y1756546I1274778J290376D01*
G01*
X1530482Y1113836D02*
G03*
X1546112Y1106360I381711J777989D01*
G01*
X1513266Y1122524D02*
G03*
X1530482Y1113836I394740J760775D01*
G01*
X1237455Y1353219D02*
G03*
X1247585Y1340403I699813J542693D01*
G01*
X1247585D02*
G03*
X1258015Y1327701I682175J549462D01*
G01*
X1258014D02*
G03*
X1269959Y1313731I664492J556090D01*
G01*
D02*
G03*
X1282286Y1299924I645669J564052D01*
G01*
Y1299924D02*
G03*
X1297590Y1283588I626688J571781D01*
G01*
Y1283589D02*
G03*
X1316164Y1264877I604764J581742D01*
G01*
Y1264877D02*
G03*
X1444781Y1162254I574269J587822D01*
G01*
X1444781Y1162254D02*
G03*
X1472799Y1144947I450152J697415D01*
G01*
D02*
G03*
X1494590Y1132513I426617J722297D01*
G01*
Y1132512D02*
G03*
X1513266Y1122524I409155J742579D01*
G01*
X1546112Y1106360D02*
G03*
X1560043Y1100015I370042J793957D01*
G01*
X5680000Y6190000D02*
X7480000D01*
X5680000Y6750000D02*
X7480000D01*
Y6190000D02*
Y6750000D01*
X5680000Y6190000D02*
Y6750000D01*
X5400000Y7700000D02*
X5550000D01*
X5400000Y6500000D02*
Y7700000D01*
X5550000Y6500000D02*
Y7700000D01*
X5400000Y6500000D02*
X5550000D01*
X1325000Y3550000D02*
X5125000D01*
X1325000D02*
Y3825000D01*
X5125000Y3550000D02*
Y3825000D01*
X1325000D02*
X5125000D01*
X4200000Y5200000D02*
X4300000D01*
X4200000D02*
Y6500000D01*
X4300000D01*
Y5200000D02*
Y6500000D01*
X4775000Y5200000D02*
Y6500000D01*
X4875000Y5200000D02*
Y6500000D01*
X4775000Y5200000D02*
X4875000D01*
X4775000Y6500000D02*
X4875000D01*
X3350000D02*
X3450000D01*
Y5300000D02*
Y6500000D01*
X3350000Y5300000D02*
Y6500000D01*
Y5300000D02*
X3450000D01*
X2800000D02*
X2900000D01*
X2800000Y6500000D02*
X2900000D01*
Y5300000D02*
Y6500000D01*
X2800000Y5300000D02*
Y6500000D01*
X1975000Y5300000D02*
Y5400000D01*
Y6500000D02*
X2075000D01*
Y5300000D02*
Y6500000D01*
X1975000Y5300000D02*
X2075000D01*
X1975000Y5400000D02*
Y6500000D01*
X1500000Y5300000D02*
Y6500000D01*
X1400000Y5300000D02*
X1500000D01*
X1400000D02*
Y6500000D01*
X1500000D01*
X2374034Y7026134D02*
X2374043Y7025943D01*
X2373683Y7032665D02*
X2373715Y7032154D01*
X2373856Y7029731D02*
X2373881Y7029274D01*
X2373745Y7031652D02*
X2373775Y7031158D01*
X2373803Y7030674D01*
X2373715Y7032154D02*
X2373745Y7031652D01*
X2373881Y7029274D02*
X2373905Y7028825D01*
X2373927Y7028386D01*
X2373949Y7027955D01*
X2373970Y7027534D01*
X2373989Y7027123D01*
X2374008Y7026720D01*
X2374026Y7026327D01*
X2370538Y7064499D02*
X2370870Y7061925D01*
X2373650Y7033185D02*
X2373683Y7032665D01*
X2373803Y7030674D02*
X2373830Y7030198D01*
X2373856Y7029731D01*
X2373616Y7033714D02*
X2373650Y7033185D01*
X2373197Y7039470D02*
X2373269Y7038553D01*
X2373337Y7037655D01*
X2373381Y7037066D01*
X2373424Y7036486D01*
X2373465Y7035915D01*
X2373505Y7035352D01*
X2373543Y7034797D01*
X2373580Y7034251D01*
X2373616Y7033714D01*
X2373121Y7040406D02*
X2373197Y7039470D01*
X2373042Y7041360D02*
X2373121Y7040406D01*
X2374208Y7021114D02*
X2374211Y7021004D01*
X2374220Y7020589D02*
X2374222Y7020492D01*
X2374211Y7021004D02*
X2374213Y7020897D01*
X2374216Y7020792D01*
X2374222Y7020492D02*
X2374224Y7020397D01*
X2374226Y7020305D01*
X2374227Y7020216D01*
X2374229Y7020129D01*
X2374230Y7020044D01*
X2374232Y7019962D01*
X2374233Y7019883D01*
X2374216Y7020792D02*
X2374218Y7020689D01*
X2374241Y7019344D02*
X2374241Y7019288D01*
X2374244Y7019050D02*
X2374244Y7019011D01*
X2374242Y7019185D02*
X2374243Y7019138D01*
X2374243Y7019093D01*
X2374244Y7019050D01*
X2374244Y7018974D02*
X2374244Y7018940D01*
X2374245Y7018908D01*
X2374245Y7018880D01*
X2374244Y7019011D02*
X2374244Y7018974D01*
X2374245Y7018854D02*
Y7018880D01*
X2374245Y7018742D02*
Y7018744D01*
Y7018748D01*
X2374245Y7018792D02*
Y7018810D01*
Y7018831D01*
X2374245Y7018854D02*
X2374245Y7018831D01*
Y7018792D02*
X2374245Y7018777D01*
Y7018764D02*
Y7018777D01*
Y7018755D02*
Y7018764D01*
Y7018748D02*
Y7018755D01*
X2370124Y7067580D02*
X2370538Y7064499D01*
X2372591Y7046399D02*
X2372689Y7045356D01*
X2372960Y7042332D02*
X2373042Y7041360D01*
X2372689Y7045356D02*
X2372783Y7044330D01*
X2372873Y7043322D01*
X2372960Y7042332D01*
X2372454Y7047818D02*
X2372591Y7046399D01*
X2372310Y7049267D02*
X2372454Y7047818D01*
X2372159Y7050747D02*
X2372310Y7049267D01*
X2370870Y7061925D02*
X2371181Y7059412D01*
X2371656Y7055364D02*
X2371832Y7053796D01*
X2371999Y7052256D01*
X2372159Y7050747D01*
X2374242Y7019235D02*
X2374242Y7019185D01*
X2374218Y7020689D02*
X2374220Y7020589D01*
X2374241Y7019288D02*
X2374242Y7019235D01*
X2374240Y7019402D02*
X2374241Y7019344D01*
X2374237Y7019661D02*
X2374238Y7019593D01*
X2374239Y7019526D01*
X2374239Y7019463D01*
X2374240Y7019402D01*
X2374235Y7019807D02*
X2374236Y7019733D01*
X2374237Y7019661D01*
X2374233Y7019883D02*
X2374235Y7019807D01*
X2374206Y7021226D02*
X2374208Y7021114D01*
X2374200Y7021459D02*
X2374203Y7021342D01*
X2374206Y7021226D01*
X2374190Y7021827D02*
X2374193Y7021702D01*
X2374197Y7021580D01*
X2374200Y7021459D01*
X2374187Y7021955D02*
X2374190Y7021827D01*
X2374183Y7022085D02*
X2374187Y7021955D01*
X2374179Y7022218D02*
X2374183Y7022085D01*
X2374171Y7022490D02*
X2374175Y7022353D01*
X2374179Y7022218D01*
X2374051Y7025755D02*
X2374059Y7025569D01*
X2374066Y7025385D01*
X2374074Y7025204D01*
X2374088Y7024848D02*
X2374095Y7024674D01*
X2374102Y7024502D01*
X2374108Y7024333D01*
X2374114Y7024166D01*
X2374074Y7025204D02*
X2374081Y7025025D01*
X2374088Y7024848D01*
X2374043Y7025943D02*
X2374051Y7025755D01*
X2374114Y7024166D02*
X2374120Y7024002D01*
X2374126Y7023840D01*
X2374132Y7023680D01*
X2374148Y7023216D02*
X2374153Y7023065D01*
X2374158Y7022918D01*
X2374162Y7022773D01*
X2374167Y7022631D01*
X2374171Y7022490D01*
X2374143Y7023368D02*
X2374148Y7023216D01*
X2374137Y7023523D02*
X2374143Y7023368D01*
X2374132Y7023680D02*
X2374137Y7023523D01*
X1508213Y8012687D02*
X1512700Y8012700D01*
X1503754Y8012646D02*
X1508213Y8012687D01*
X1499321Y8012579D02*
X1503754Y8012646D01*
X1494915Y8012486D02*
X1499321Y8012579D01*
X1490536Y8012366D02*
X1494915Y8012486D01*
X1486183Y8012220D02*
X1490536Y8012366D01*
X1481857Y8012048D02*
X1486183Y8012220D01*
X1477557Y8011850D02*
X1481857Y8012048D01*
X1473284Y8011626D02*
X1477557Y8011850D01*
X1469036Y8011377D02*
X1473284Y8011626D01*
X1464815Y8011102D02*
X1469036Y8011377D01*
X1460621Y8010803D02*
X1464815Y8011102D01*
X1393224Y8002005D02*
X1398248Y8002938D01*
X1378416Y7998969D02*
X1383309Y8000020D01*
X1388245Y8001032D02*
X1393224Y8002005D01*
X1383309Y8000020D02*
X1388245Y8001032D01*
X1373567Y7997879D02*
X1378416Y7998969D01*
X1368761Y7996752D02*
X1373567Y7997879D01*
X1363998Y7995586D02*
X1368761Y7996752D01*
X1359277Y7994383D02*
X1363998Y7995586D01*
X1354599Y7993144D02*
X1359277Y7994383D01*
X1349963Y7991867D02*
X1354599Y7993144D01*
X1344227Y7990221D02*
X1349963Y7991867D01*
X1338557Y7988519D02*
X1344227Y7990221D01*
X1332952Y7986762D02*
X1338557Y7988519D01*
X10518676Y8012676D02*
X10523127Y8012627D01*
X10512700Y8012700D02*
X10518676Y8012676D01*
X1512700Y8012700D02*
X10512700D01*
X1456452Y8010478D02*
X1460621Y8010803D01*
X1452309Y8010128D02*
X1456452Y8010478D01*
X1435995Y8008483D02*
X1440035Y8008931D01*
X1448192Y8009754D02*
X1452309Y8010128D01*
X1444101Y8009355D02*
X1448192Y8009754D01*
X1440035Y8008931D02*
X1444101Y8009355D01*
X1431981Y8008012D02*
X1435995Y8008483D01*
X1427992Y8007516D02*
X1431981Y8008012D01*
X1424028Y8006996D02*
X1427992Y8007516D01*
X1418783Y8006267D02*
X1424028Y8006996D01*
X1413582Y8005496D02*
X1418783Y8006267D01*
X1408426Y8004684D02*
X1413582Y8005496D01*
X1403315Y8003832D02*
X1408426Y8004684D01*
X1398248Y8002938D02*
X1403315Y8003832D01*
X1327411Y7984951D02*
X1332952Y7986762D01*
X1291421Y7971252D02*
X1297561Y7973839D01*
X1310112Y7978798D02*
X1316523Y7981168D01*
X1321935Y7983086D02*
X1327411Y7984951D01*
X1316523Y7981168D02*
X1321935Y7983086D01*
X1303791Y7976355D02*
X1310112Y7978798D01*
X1297561Y7973839D02*
X1303791Y7976355D01*
X11012617Y7517071D02*
X11012621Y7516916D01*
X11012612Y7517228D02*
X11012617Y7517071D01*
X11012607Y7517388D02*
X11012612Y7517228D01*
X11012602Y7517551D02*
X11012607Y7517388D01*
X11012597Y7517716D02*
X11012602Y7517551D01*
X11012592Y7517884D02*
X11012597Y7517716D01*
X11012587Y7518055D02*
X11012592Y7517884D01*
X11012581Y7518228D02*
X11012587Y7518055D01*
X11012575Y7518403D02*
X11012581Y7518228D01*
X11012569Y7518582D02*
X11012575Y7518403D01*
X11012563Y7518763D02*
X11012569Y7518582D01*
X11012556Y7518946D02*
X11012563Y7518763D01*
X11012549Y7519133D02*
X11012556Y7518946D01*
X11012543Y7519322D02*
X11012549Y7519133D01*
X11012536Y7519513D02*
X11012543Y7519322D01*
X11012528Y7519707D02*
X11012536Y7519513D01*
X11012521Y7519903D02*
X11012528Y7519707D01*
X11012513Y7520103D02*
X11012521Y7519903D01*
X11012506Y7520304D02*
X11012513Y7520103D01*
X11012497Y7520509D02*
X11012506Y7520304D01*
X11012489Y7520715D02*
X11012497Y7520509D01*
X11012472Y7521137D02*
X11012489Y7520715D01*
X11012453Y7521568D02*
X11012472Y7521137D01*
X11012434Y7522010D02*
X11012453Y7521568D01*
X11012414Y7522462D02*
X11012434Y7522010D01*
X11012393Y7522923D02*
X11012414Y7522462D01*
X11012700Y7512706D02*
Y7512713D01*
Y7512724D01*
X11011079Y7542314D02*
X11011176Y7541189D01*
X11010944Y7543844D02*
X11011079Y7542314D01*
X11012700Y7512700D02*
Y7512702D01*
Y7512706D01*
Y7512724D02*
Y7512737D01*
Y7512754D01*
Y7512773D01*
X11012700Y7512795D02*
X11012700Y7512773D01*
X11012700Y7512795D02*
Y7512821D01*
X11012699Y7512849D02*
X11012700Y7512821D01*
X11012699Y7512849D02*
Y7512880D01*
X11012699Y7512914D02*
X11012699Y7512880D01*
X11012699Y7512951D02*
X11012699Y7512914D01*
X11012699Y7512991D02*
X11012699Y7512951D01*
X11012698Y7513034D02*
X11012699Y7512991D01*
X11012698Y7513080D02*
X11012698Y7513034D01*
X11012698Y7513128D02*
X11012698Y7513080D01*
X11012697Y7513180D02*
X11012698Y7513128D01*
X11012697Y7513235D02*
X11012697Y7513180D01*
X11012696Y7513292D02*
X11012697Y7513235D01*
X11012695Y7513352D02*
X11012696Y7513292D01*
X11012695Y7513415D02*
X11012695Y7513352D01*
X11012694Y7513481D02*
X11012695Y7513415D01*
X11012693Y7513550D02*
X11012694Y7513481D01*
X11012692Y7513622D02*
X11012693Y7513550D01*
X11012691Y7513696D02*
X11012692Y7513622D01*
X11012690Y7513774D02*
X11012691Y7513696D01*
X11012689Y7513854D02*
X11012690Y7513774D01*
X11012688Y7513937D02*
X11012689Y7513854D01*
X11012686Y7514023D02*
X11012688Y7513937D01*
X11012685Y7514112D02*
X11012686Y7514023D01*
X11012684Y7514203D02*
X11012685Y7514112D01*
X11012682Y7514297D02*
X11012684Y7514203D01*
X11012680Y7514395D02*
X11012682Y7514297D01*
X11012679Y7514494D02*
X11012680Y7514395D01*
X11012677Y7514597D02*
X11012679Y7514494D01*
X11012675Y7514703D02*
X11012677Y7514597D01*
X11012672Y7514811D02*
X11012675Y7514703D01*
X11012670Y7514922D02*
X11012672Y7514811D01*
X11012668Y7515036D02*
X11012670Y7514922D01*
X11012666Y7515153D02*
X11012668Y7515036D01*
X11012663Y7515272D02*
X11012666Y7515153D01*
X11012660Y7515394D02*
X11012663Y7515272D01*
X11012657Y7515519D02*
X11012660Y7515394D01*
X11012654Y7515646D02*
X11012657Y7515519D01*
X11012651Y7515777D02*
X11012654Y7515646D01*
X11012648Y7515910D02*
X11012651Y7515777D01*
X11012645Y7516045D02*
X11012648Y7515910D01*
X11012641Y7516184D02*
X11012645Y7516045D01*
X11012637Y7516325D02*
X11012641Y7516184D01*
X11012634Y7516469D02*
X11012637Y7516325D01*
X11012630Y7516615D02*
X11012634Y7516469D01*
X11012625Y7516764D02*
X11012630Y7516615D01*
X11012621Y7516916D02*
X11012625Y7516764D01*
X11011978Y7530411D02*
X11012016Y7529814D01*
X11011940Y7531017D02*
X11011978Y7530411D01*
X11011899Y7531632D02*
X11011940Y7531017D01*
X11011857Y7532256D02*
X11011899Y7531632D01*
X11011814Y7532890D02*
X11011857Y7532256D01*
X11011747Y7533857D02*
X11011814Y7532890D01*
X11011676Y7534845D02*
X11011747Y7533857D01*
X11011602Y7535853D02*
X11011676Y7534845D01*
X11011524Y7536881D02*
X11011602Y7535853D01*
X11011442Y7537929D02*
X11011524Y7536881D01*
X11011357Y7538996D02*
X11011442Y7537929D01*
X11011268Y7540083D02*
X11011357Y7538996D01*
X11011176Y7541189D02*
X11011268Y7540083D01*
X11012371Y7523395D02*
X11012393Y7522923D01*
X11012348Y7523876D02*
X11012371Y7523395D01*
X11012323Y7524368D02*
X11012348Y7523876D01*
X11012298Y7524869D02*
X11012323Y7524368D01*
X11012271Y7525380D02*
X11012298Y7524869D01*
X11012244Y7525901D02*
X11012271Y7525380D01*
X11012215Y7526431D02*
X11012244Y7525901D01*
X11012185Y7526971D02*
X11012215Y7526431D01*
X11012153Y7527521D02*
X11012185Y7526971D01*
X11012121Y7528080D02*
X11012153Y7527521D01*
X11012087Y7528648D02*
X11012121Y7528080D01*
X11012052Y7529226D02*
X11012087Y7528648D01*
X11012016Y7529814D02*
X11012052Y7529226D01*
X10920103Y7814857D02*
X10923473Y7809700D01*
X10929965Y7799332D02*
X10933090Y7794126D01*
X10926760Y7804524D02*
X10929965Y7799332D01*
X10923473Y7809700D02*
X10926760Y7804524D01*
X10916650Y7819994D02*
X10920103Y7814857D01*
X10913112Y7825107D02*
X10916650Y7819994D01*
X10908963Y7830921D02*
X10913112Y7825107D01*
X10904700Y7836700D02*
X10908963Y7830921D01*
X10900322Y7842440D02*
X10904700Y7836700D01*
X11010802Y7545408D02*
X11010944Y7543844D01*
X11010329Y7550294D02*
X11010494Y7548633D01*
X11010652Y7547004D02*
X11010802Y7545408D01*
X11010494Y7548633D02*
X11010652Y7547004D01*
X11010156Y7551987D02*
X11010329Y7550294D01*
X11009927Y7554148D02*
X11010156Y7551987D01*
X11009686Y7556357D02*
X11009927Y7554148D01*
X11009430Y7558614D02*
X11009686Y7556357D01*
X11009105Y7561384D02*
X11009430Y7558614D01*
X11008700Y7564700D02*
X11009105Y7561384D01*
X11008200Y7568597D02*
X11008700Y7564700D01*
X11007591Y7573115D02*
X11008200Y7568597D01*
X11006774Y7578824D02*
X11007591Y7573115D01*
X10992168Y7650174D02*
X10994568Y7640777D01*
X10985695Y7673016D02*
X10987782Y7666000D01*
X10989950Y7658374D02*
X10992168Y7650174D01*
X10987782Y7666000D02*
X10989950Y7658374D01*
X10983720Y7679393D02*
X10985695Y7673016D01*
X10981650Y7685825D02*
X10983720Y7679393D01*
X10979485Y7692307D02*
X10981650Y7685825D01*
X10977477Y7698109D02*
X10979485Y7692307D01*
X10975391Y7703943D02*
X10977477Y7698109D01*
X10973223Y7709808D02*
X10975391Y7703943D01*
X10970973Y7715700D02*
X10973223Y7709808D01*
X10968936Y7720876D02*
X10970973Y7715700D01*
X10966833Y7726068D02*
X10968936Y7720876D01*
X10964664Y7731274D02*
X10966833Y7726068D01*
X10957749Y7746959D02*
X10960123Y7741722D01*
X10962428Y7736493D02*
X10964664Y7731274D01*
X10960123Y7741722D02*
X10962428Y7736493D01*
X10955304Y7752203D02*
X10957749Y7746959D01*
X10952788Y7757450D02*
X10955304Y7752203D01*
X10950200Y7762700D02*
X10952788Y7757450D01*
X10947538Y7767950D02*
X10950200Y7762700D01*
X10944802Y7773197D02*
X10947538Y7767950D01*
X10941990Y7778441D02*
X10944802Y7773197D01*
X10939101Y7783678D02*
X10941990Y7778441D01*
X10936135Y7788907D02*
X10939101Y7783678D01*
X10933090Y7794126D02*
X10936135Y7788907D01*
X10731942Y7972122D02*
X10739028Y7969042D01*
X10725772Y7974685D02*
X10731942Y7972122D01*
X10719512Y7977177D02*
X10725772Y7974685D01*
X10713161Y7979596D02*
X10719512Y7977177D01*
X10707800Y7981556D02*
X10713161Y7979596D01*
X10702375Y7983463D02*
X10707800Y7981556D01*
X10696886Y7985317D02*
X10702375Y7983463D01*
X10661402Y7995586D02*
X10666123Y7994383D01*
X10691332Y7987118D02*
X10696886Y7985317D01*
X10685714Y7988864D02*
X10691332Y7987118D01*
X10680031Y7990555D02*
X10685714Y7988864D01*
X10675437Y7991867D02*
X10680031Y7990555D01*
X10670801Y7993144D02*
X10675437Y7991867D01*
X10666123Y7994383D02*
X10670801Y7993144D01*
X10656639Y7996752D02*
X10661402Y7995586D01*
X10651833Y7997879D02*
X10656639Y7996752D01*
X10646984Y7998969D02*
X10651833Y7997879D01*
X10642091Y8000020D02*
X10646984Y7998969D01*
X10637155Y8001032D02*
X10642091Y8000020D01*
X10632176Y8002005D02*
X10637155Y8001032D01*
X10616973Y8004684D02*
X10622085Y8003832D01*
X10627152Y8002938D02*
X10632176Y8002005D01*
X10622085Y8003832D02*
X10627152Y8002938D01*
X10611817Y8005496D02*
X10616973Y8004684D01*
X10606617Y8006267D02*
X10611817Y8005496D01*
X10602687Y8006818D02*
X10606617Y8006267D01*
X10598732Y8007345D02*
X10602687Y8006818D01*
X10594751Y8007849D02*
X10598732Y8007345D01*
X10590746Y8008329D02*
X10594751Y8007849D01*
X10586714Y8008785D02*
X10590746Y8008329D01*
X10582657Y8009216D02*
X10586714Y8008785D01*
X10578575Y8009623D02*
X10582657Y8009216D01*
X10574466Y8010006D02*
X10578575Y8009623D01*
X10561985Y8011005D02*
X10566172Y8010697D01*
X10570332Y8010364D02*
X10574466Y8010006D01*
X10566172Y8010697D02*
X10570332Y8010364D01*
X10557773Y8011288D02*
X10561985Y8011005D01*
X10553535Y8011546D02*
X10557773Y8011288D01*
X10549270Y8011778D02*
X10553535Y8011546D01*
X10544979Y8011984D02*
X10549270Y8011778D01*
X10540662Y8012165D02*
X10544979Y8011984D01*
X10536318Y8012320D02*
X10540662Y8012165D01*
X10531947Y8012449D02*
X10536318Y8012320D01*
X10527550Y8012551D02*
X10531947Y8012449D01*
X10523127Y8012627D02*
X10527550Y8012551D01*
X11012700Y2012700D02*
Y7512700D01*
Y2012697D02*
Y2012700D01*
Y2012688D02*
Y2012697D01*
Y2012673D02*
Y2012688D01*
Y2012652D02*
Y2012673D01*
Y2012625D02*
Y2012652D01*
Y2012592D02*
Y2012625D01*
X11012700Y2012554D02*
X11012700Y2012592D01*
X11012699Y2012509D02*
X11012700Y2012554D01*
X11012699Y2012459D02*
Y2012509D01*
X11012699Y2012402D02*
X11012699Y2012459D01*
X11012699Y2012340D02*
X11012699Y2012402D01*
X11012698Y2012271D02*
X11012699Y2012340D01*
X11012425Y2000574D02*
X11012438Y2000936D01*
X11012412Y2000207D02*
X11012425Y2000574D01*
X11012399Y1999834D02*
X11012412Y2000207D01*
X11012385Y1999457D02*
X11012399Y1999834D01*
X11012371Y1999074D02*
X11012385Y1999457D01*
X11012357Y1998686D02*
X11012371Y1999074D01*
X11012342Y1998293D02*
X11012357Y1998686D01*
X11012327Y1997894D02*
X11012342Y1998293D01*
X11012311Y1997491D02*
X11012327Y1997894D01*
X11012295Y1997082D02*
X11012311Y1997491D01*
X11012278Y1996669D02*
X11012295Y1997082D01*
X11012243Y1995826D02*
X11012278Y1996669D01*
X11012207Y1994963D02*
X11012243Y1995826D01*
X11012559Y2004869D02*
X11012567Y2005162D01*
X11012551Y2004571D02*
X11012559Y2004869D01*
X11012542Y2004267D02*
X11012551Y2004571D01*
X11012533Y2003958D02*
X11012542Y2004267D01*
X11012524Y2003643D02*
X11012533Y2003958D01*
X11012515Y2003323D02*
X11012524Y2003643D01*
X11012505Y2002998D02*
X11012515Y2003323D01*
X11012495Y2002668D02*
X11012505Y2002998D01*
X11012484Y2002332D02*
X11012495Y2002668D01*
X11012473Y2001991D02*
X11012484Y2002332D01*
X11012462Y2001645D02*
X11012473Y2001991D01*
X11012450Y2001293D02*
X11012462Y2001645D01*
X11012438Y2000936D02*
X11012450Y2001293D01*
X11012641Y2008256D02*
X11012645Y2008478D01*
X11012636Y2008028D02*
X11012641Y2008256D01*
X11012631Y2007795D02*
X11012636Y2008028D01*
X11012626Y2007556D02*
X11012631Y2007795D01*
X11012620Y2007312D02*
X11012626Y2007556D01*
X11012615Y2007062D02*
X11012620Y2007312D01*
X11012609Y2006807D02*
X11012615Y2007062D01*
X11012603Y2006547D02*
X11012609Y2006807D01*
X11012596Y2006280D02*
X11012603Y2006547D01*
X11012589Y2006009D02*
X11012596Y2006280D01*
X11012582Y2005732D02*
X11012589Y2006009D01*
X11012575Y2005450D02*
X11012582Y2005732D01*
X11012567Y2005162D02*
X11012575Y2005450D01*
X11012682Y2010707D02*
X11012684Y2010856D01*
X11012680Y2010552D02*
X11012682Y2010707D01*
X11012678Y2010392D02*
X11012680Y2010552D01*
X11012675Y2010226D02*
X11012678Y2010392D01*
X11012673Y2010054D02*
X11012675Y2010226D01*
X11012670Y2009877D02*
X11012673Y2010054D01*
X11012667Y2009693D02*
X11012670Y2009877D01*
X11012664Y2009505D02*
X11012667Y2009693D01*
X11012661Y2009310D02*
X11012664Y2009505D01*
X11012657Y2009111D02*
X11012661Y2009310D01*
X11012653Y2008905D02*
X11012657Y2009111D01*
X11012649Y2008694D02*
X11012653Y2008905D01*
X11012645Y2008478D02*
X11012649Y2008694D01*
X11012168Y1994080D02*
X11012207Y1994963D01*
X11012128Y1993177D02*
X11012168Y1994080D01*
X11012086Y1992253D02*
X11012128Y1993177D01*
X11012041Y1991310D02*
X11012086Y1992253D01*
X11011995Y1990347D02*
X11012041Y1991310D01*
X11011946Y1989364D02*
X11011995Y1990347D01*
X11011896Y1988362D02*
X11011946Y1989364D01*
X11011843Y1987340D02*
X11011896Y1988362D01*
X11011787Y1986298D02*
X11011843Y1987340D01*
X11011730Y1985238D02*
X11011787Y1986298D01*
X11011670Y1984158D02*
X11011730Y1985238D01*
X11011607Y1983059D02*
X11011670Y1984158D01*
X11011542Y1981940D02*
X11011607Y1983059D01*
X11011475Y1980803D02*
X11011542Y1981940D01*
X11011405Y1979647D02*
X11011475Y1980803D01*
X11011332Y1978472D02*
X11011405Y1979647D01*
X11011257Y1977279D02*
X11011332Y1978472D01*
X11011179Y1976067D02*
X11011257Y1977279D01*
X11011098Y1974836D02*
X11011179Y1976067D01*
X11011015Y1973587D02*
X11011098Y1974836D01*
X11010928Y1972320D02*
X11011015Y1973587D01*
X11010793Y1970385D02*
X11010928Y1972320D01*
X11010652Y1968410D02*
X11010793Y1970385D01*
X11010503Y1966394D02*
X11010652Y1968410D01*
X11010347Y1964338D02*
X11010503Y1966394D01*
X11010184Y1962243D02*
X11010347Y1964338D01*
X11010014Y1960108D02*
X11010184Y1962243D01*
X11009837Y1957935D02*
X11010014Y1960108D01*
X11009651Y1955722D02*
X11009837Y1957935D01*
X11009458Y1953472D02*
X11009651Y1955722D01*
X11009188Y1950412D02*
X11009458Y1953472D01*
X11008904Y1947285D02*
X11009188Y1950412D01*
X11008604Y1944092D02*
X11008904Y1947285D01*
X11008289Y1940834D02*
X11008604Y1944092D01*
X11007958Y1937511D02*
X11008289Y1940834D01*
X11007611Y1934125D02*
X11007958Y1937511D01*
X11007155Y1929803D02*
X11007611Y1934125D01*
X11006671Y1925385D02*
X11007155Y1929803D01*
X11006161Y1920871D02*
X11006671Y1925385D01*
X11005511Y1915331D02*
X11006161Y1920871D01*
X11004700Y1908700D02*
X11005511Y1915331D01*
X11003701Y1900906D02*
X11004700Y1908700D01*
X11002482Y1891869D02*
X11003701Y1900906D01*
X11000848Y1880453D02*
X11002482Y1891869D01*
X10971636Y1737752D02*
X10976435Y1756546D01*
X10967201Y1721352D02*
X10971636Y1737752D01*
X10962864Y1706100D02*
X10967201Y1721352D01*
X10958690Y1692068D02*
X10962864Y1706100D01*
X10954739Y1679314D02*
X10958690Y1692068D01*
X10950601Y1666450D02*
X10954739Y1679314D01*
X11012684Y2010856D02*
X11012686Y2011000D01*
X11012698Y2012197D02*
X11012698Y2012271D01*
X11012697Y2012117D02*
X11012698Y2012197D01*
X11012697Y2012032D02*
X11012697Y2012117D01*
X11012696Y2011940D02*
X11012697Y2012032D01*
X11012695Y2011843D02*
X11012696Y2011940D01*
X11012694Y2011740D02*
X11012695Y2011843D01*
X11012693Y2011631D02*
X11012694Y2011740D01*
X11012692Y2011516D02*
X11012693Y2011631D01*
X11012691Y2011396D02*
X11012692Y2011516D01*
X11012689Y2011269D02*
X11012691Y2011396D01*
X11012688Y2011137D02*
X11012689Y2011269D01*
X11012686Y2011000D02*
X11012688Y2011137D01*
X1012711Y7513854D02*
X1012712Y7513937D01*
X1012708Y7513622D02*
X1012709Y7513696D01*
X1012710Y7513774D02*
X1012711Y7513854D01*
X1012709Y7513696D02*
X1012710Y7513774D01*
X1012707Y7513550D02*
X1012708Y7513622D01*
X1012706Y7513481D02*
X1012707Y7513550D01*
X1012705Y7513415D02*
X1012706Y7513481D01*
X1012705Y7513352D02*
X1012705Y7513415D01*
X1012704Y7513292D02*
X1012705Y7513352D01*
X1012703Y7513235D02*
X1012704Y7513292D01*
X1012703Y7513180D02*
X1012703Y7513235D01*
X1012702Y7513128D02*
X1012703Y7513180D01*
X1012702Y7513080D02*
X1012702Y7513128D01*
X1084639Y7780686D02*
X1087561Y7785920D01*
X1081794Y7775445D02*
X1084639Y7780686D01*
X1083145Y1641883D02*
X1087318Y1630214D01*
X1091654Y1618484D01*
X1096154Y1606700D01*
X1100228Y1596349D01*
X1104434Y1585965D01*
X1108772Y1575552D01*
X1113245Y1565114D01*
X1117854Y1554656D01*
X1122602Y1544181D01*
X1127491Y1533694D01*
X1132523Y1523199D01*
X1012702Y7513034D02*
X1012702Y7513080D01*
X1012701Y7512914D02*
X1012701Y7512951D01*
X1012701Y7512991D02*
X1012702Y7513034D01*
X1012701Y7512951D02*
X1012701Y7512991D01*
X1012701Y7512880D02*
X1012701Y7512914D01*
X1012701Y7512849D02*
Y7512880D01*
X1012700Y7512821D02*
X1012701Y7512849D01*
X1012700Y7512795D02*
Y7512821D01*
X1012700Y7512773D02*
X1012700Y7512795D01*
X1012700Y7512754D02*
Y7512773D01*
Y7512737D02*
Y7512754D01*
Y7512724D02*
Y7512737D01*
Y7512713D02*
Y7512724D01*
Y7512706D02*
Y7512713D01*
Y6012700D02*
Y7012700D01*
Y7512700D02*
Y7512706D01*
Y7012700D02*
Y7512700D01*
Y5012700D02*
Y6012700D01*
Y4012700D02*
Y5012700D01*
Y3012700D02*
Y4012700D01*
Y2012700D02*
Y3012700D01*
Y2012697D02*
Y2012700D01*
Y2012688D02*
Y2012697D01*
Y2012673D02*
Y2012688D01*
Y2012652D02*
Y2012673D01*
Y2012625D02*
Y2012652D01*
Y2012592D02*
Y2012625D01*
X1012701Y2012459D02*
Y2012509D01*
X1012700Y2012592D02*
X1012700Y2012554D01*
X1012701Y2012509D01*
Y2012459D02*
X1012701Y2012402D01*
X1012701Y2012340D01*
X1012702Y2012271D01*
X1012702Y2012197D01*
X1012703Y2012117D01*
X1012703Y2012032D01*
X1012704Y2011940D01*
X1012705Y2011843D01*
X1012706Y2011740D01*
X1012707Y2011631D01*
X1012709Y2011396D02*
X1012711Y2011269D01*
X1012707Y2011631D02*
X1012708Y2011516D01*
X1012709Y2011396D01*
X1012711Y2011269D02*
X1012712Y2011137D01*
X1012714Y2011000D01*
X1012716Y2010856D01*
X1012718Y2010707D01*
X1012720Y2010552D01*
X1012722Y2010392D01*
X1012724Y2010226D01*
X1012727Y2010054D01*
X1012730Y2009877D01*
X1012733Y2009693D01*
X1012739Y2009310D02*
X1012743Y2009111D01*
X1012733Y2009693D02*
X1012736Y2009505D01*
X1012739Y2009310D01*
X1012743Y2009111D02*
X1012747Y2008905D01*
X1012751Y2008694D01*
X1012755Y2008478D01*
X1012759Y2008256D01*
X1012764Y2008028D01*
X1012769Y2007795D01*
X1012774Y2007556D01*
X1012780Y2007312D01*
X1012785Y2007062D01*
X1012791Y2006807D01*
X1012804Y2006280D02*
X1012811Y2006009D01*
X1012791Y2006807D02*
X1012797Y2006547D01*
X1012804Y2006280D01*
X1012811Y2006009D02*
X1012818Y2005732D01*
X1012825Y2005450D01*
X1012833Y2005162D01*
X1012840Y2004869D01*
X1012849Y2004571D01*
X1012858Y2004267D01*
X1012866Y2003958D01*
X1012876Y2003643D01*
X1012885Y2003323D01*
X1012895Y2002998D01*
X1012916Y2002332D02*
X1012927Y2001991D01*
X1012895Y2002998D02*
X1012905Y2002668D01*
X1012916Y2002332D01*
X1012927Y2001991D02*
X1012938Y2001645D01*
X1012950Y2001293D01*
X1012962Y2000936D01*
X1012975Y2000574D01*
X1012988Y2000207D01*
X1013001Y1999834D01*
X1013014Y1999457D01*
X1013028Y1999074D01*
X1013043Y1998686D01*
X1013058Y1998293D01*
X1013089Y1997491D02*
X1013105Y1997082D01*
X1013058Y1998293D02*
X1013073Y1997894D01*
X1013089Y1997491D01*
X1013105Y1997082D02*
X1013122Y1996669D01*
X1013156Y1995826D01*
X1013193Y1994963D01*
X1013231Y1994080D01*
X1013272Y1993177D01*
X1013314Y1992253D01*
X1013358Y1991310D01*
X1013405Y1990347D01*
X1013453Y1989364D01*
X1013504Y1988362D01*
X1013613Y1986298D02*
X1013670Y1985238D01*
X1013504Y1988362D02*
X1013557Y1987340D01*
X1013613Y1986298D01*
X1013670Y1985238D02*
X1013730Y1984158D01*
X1013793Y1983059D01*
X1013858Y1981940D01*
X1013925Y1980803D01*
X1013995Y1979647D01*
X1014068Y1978472D01*
X1014143Y1977279D01*
X1014221Y1976067D01*
X1014302Y1974836D01*
X1014385Y1973587D01*
X1014607Y1970385D02*
X1014748Y1968410D01*
X1014385Y1973587D02*
X1014471Y1972320D01*
X1014607Y1970385D01*
X1014748Y1968410D02*
X1014897Y1966394D01*
X1015053Y1964338D01*
X1015215Y1962243D01*
X1015386Y1960108D01*
X1015563Y1957935D01*
X1015749Y1955722D01*
X1015942Y1953472D01*
X1016212Y1950412D01*
X1016496Y1947285D01*
X1017441Y1937511D02*
X1017788Y1934125D01*
X1016496Y1947285D02*
X1016796Y1944092D01*
X1017111Y1940834D01*
X1017441Y1937511D01*
X1017788Y1934125D02*
X1018245Y1929803D01*
X1018728Y1925385D01*
X1019239Y1920871D01*
X1019889Y1915331D01*
X1020700Y1908700D01*
X1021699Y1900906D01*
X1022918Y1891869D01*
X1024552Y1880453D01*
X1939559Y1014544D02*
X1948141Y1014131D01*
X1956776Y1013769D01*
X10200534Y1025565D02*
X10210935Y1027107D01*
X10176803Y1022402D02*
X10184764Y1023409D01*
X10192674Y1024464D02*
X10200534Y1025565D01*
X10184764Y1023409D02*
X10192674Y1024464D01*
X10168791Y1021442D02*
X10176803Y1022402D01*
X10160728Y1020531D02*
X10168791Y1021442D01*
X10152615Y1019668D02*
X10160728Y1020531D01*
X10144449Y1018853D02*
X10152615Y1019668D01*
X10136232Y1018088D02*
X10144449Y1018853D01*
X10127964Y1017372D02*
X10136232Y1018088D01*
X10119644Y1016706D02*
X10127964Y1017372D01*
X10111271Y1016089D02*
X10119644Y1016706D01*
X10102847Y1015523D02*
X10111271Y1016089D01*
X10946270Y1653485D02*
X10950601Y1666450D01*
X10933746Y1618484D02*
X10938082Y1630214D01*
X10942255Y1641883D02*
X10946270Y1653485D01*
X10938082Y1630214D02*
X10942255Y1641883D01*
X10929246Y1606700D02*
X10933746Y1618484D01*
X10925171Y1596349D02*
X10929246Y1606700D01*
X10920966Y1585965D02*
X10925171Y1596349D01*
X10916628Y1575552D02*
X10920966Y1585965D01*
X10912155Y1565114D02*
X10916628Y1575552D01*
X10907546Y1554656D02*
X10912155Y1565114D01*
X10902798Y1544181D02*
X10907546Y1554656D01*
X10897909Y1533694D02*
X10902798Y1544181D01*
X10892877Y1523199D02*
X10897909Y1533694D01*
X10871279Y1481219D02*
X10876903Y1491705D01*
X10887700Y1512700D02*
X10892877Y1523199D01*
X10882376Y1502201D02*
X10887700Y1512700D01*
X10876903Y1491705D02*
X10882376Y1502201D01*
X10865502Y1470744D02*
X10871279Y1481219D01*
X10859570Y1460286D02*
X10865502Y1470744D01*
X10853480Y1449848D02*
X10859570Y1460286D01*
X10847231Y1439435D02*
X10853480Y1449848D01*
X10840820Y1429051D02*
X10847231Y1439435D01*
X10834246Y1418700D02*
X10840820Y1429051D01*
X10827507Y1408386D02*
X10834246Y1418700D01*
X10820600Y1398113D02*
X10827507Y1408386D01*
X10813523Y1387885D02*
X10820600Y1398113D01*
X10805225Y1376257D02*
X10813523Y1387885D01*
X10796700Y1364700D02*
X10805225Y1376257D01*
X10787944Y1353219D02*
X10796700Y1364700D01*
X10451184Y1093856D02*
X10465357Y1100015D01*
X10438844Y1088729D02*
X10451184Y1093856D01*
X10426324Y1083745D02*
X10438844Y1088729D01*
X10413623Y1078907D02*
X10426324Y1083745D01*
X10402900Y1074988D02*
X10413623Y1078907D01*
X10392050Y1071174D02*
X10402900Y1074988D01*
X10381071Y1067465D02*
X10392050Y1071174D01*
X10369964Y1063864D02*
X10381071Y1067465D01*
X10358728Y1060372D02*
X10369964Y1063864D01*
X10347361Y1056990D02*
X10358728Y1060372D01*
X10338174Y1054365D02*
X10347361Y1056990D01*
X10328902Y1051813D02*
X10338174Y1054365D01*
X10261610Y1036036D02*
X10271482Y1038060D01*
X10319546Y1049333D02*
X10328902Y1051813D01*
X10310105Y1046928D02*
X10319546Y1049333D01*
X10300578Y1044597D02*
X10310105Y1046928D01*
X10290966Y1042342D02*
X10300578Y1044597D01*
X10281267Y1040162D02*
X10290966Y1042342D01*
X10271482Y1038060D02*
X10281267Y1040162D01*
X10251651Y1034090D02*
X10261610Y1036036D01*
X10241605Y1032223D02*
X10251651Y1034090D01*
X10231470Y1030437D02*
X10241605Y1032223D01*
X10221247Y1028731D02*
X10231470Y1030437D01*
X10210935Y1027107D02*
X10221247Y1028731D01*
X10094370Y1015008D02*
X10102847Y1015523D01*
X10085841Y1014544D02*
X10094370Y1015008D01*
X10077258Y1014131D02*
X10085841Y1014544D01*
X10068624Y1013769D02*
X10077258Y1014131D01*
X10059936Y1013460D02*
X10068624Y1013769D01*
X10051195Y1013202D02*
X10059936Y1013460D01*
X10042401Y1012998D02*
X10051195Y1013202D01*
X10033553Y1012846D02*
X10042401Y1012998D01*
X10024652Y1012748D02*
X10033553Y1012846D01*
X1956776Y1013769D02*
X1965464Y1013460D01*
X2012700Y1012700D02*
X10012700D01*
X10024652Y1012748D01*
X1965464Y1013460D02*
X1974205Y1013202D01*
X1982999Y1012998D01*
X1991847Y1012846D01*
X2000748Y1012748D01*
X2012700Y1012700D01*
X1076332Y7764950D02*
X1079026Y7770199D01*
X1073712Y7759700D02*
X1076332Y7764950D01*
X1071165Y7754451D02*
X1073712Y7759700D01*
X1068690Y7749206D02*
X1071165Y7754451D01*
X1066286Y7743965D02*
X1068690Y7749206D01*
X1063952Y7738733D02*
X1066286Y7743965D01*
X1061686Y7733509D02*
X1063952Y7738733D01*
X1059488Y7728297D02*
X1061686Y7733509D01*
X1057357Y7723099D02*
X1059488Y7728297D01*
X1055292Y7717916D02*
X1057357Y7723099D01*
X1053291Y7712751D02*
X1055292Y7717916D01*
X1051083Y7706872D02*
X1053291Y7712751D01*
X1048956Y7701022D02*
X1051083Y7706872D01*
X1046909Y7695204D02*
X1048956Y7701022D01*
X1044941Y7689420D02*
X1046909Y7695204D01*
X1042818Y7682960D02*
X1044941Y7689420D01*
X1040791Y7676552D02*
X1042818Y7682960D01*
X1038647Y7669498D02*
X1040791Y7676552D01*
X1036616Y7662521D02*
X1038647Y7669498D01*
X1034507Y7654942D02*
X1036616Y7662521D01*
X1032352Y7646796D02*
X1034507Y7654942D01*
X1029864Y7636809D02*
X1032352Y7646796D01*
X1122328Y7838857D02*
X1126750Y7844582D01*
X1118022Y7833093D02*
X1122328Y7838857D01*
X1113831Y7827291D02*
X1118022Y7833093D01*
X1110256Y7822188D02*
X1113831Y7827291D01*
X1106766Y7817061D02*
X1110256Y7822188D01*
X1103361Y7811912D02*
X1106766Y7817061D01*
X1100038Y7806745D02*
X1103361Y7811912D01*
X1096798Y7801559D02*
X1100038Y7806745D01*
X1093639Y7796359D02*
X1096798Y7801559D01*
X1090560Y7791145D02*
X1093639Y7796359D01*
X1087561Y7785920D02*
X1090560Y7791145D01*
X1079026Y7770199D02*
X1081794Y7775445D01*
X1019025Y7581484D02*
X1020513Y7590825D01*
X1018097Y7575167D02*
X1019025Y7581484D01*
X1017464Y7570588D02*
X1018097Y7575167D01*
X1016945Y7566634D02*
X1017464Y7570588D01*
X1016523Y7563268D02*
X1016945Y7566634D01*
X1016184Y7560454D02*
X1016523Y7563268D01*
X1015866Y7557706D02*
X1016184Y7560454D01*
X1015616Y7555468D02*
X1015866Y7557706D01*
X1015380Y7553278D02*
X1015616Y7555468D01*
X1015156Y7551137D02*
X1015380Y7553278D01*
X1014987Y7549460D02*
X1015156Y7551137D01*
X1014826Y7547814D02*
X1014987Y7549460D01*
X1014672Y7546202D02*
X1014826Y7547814D01*
X1014526Y7544622D02*
X1014672Y7546202D01*
X1014387Y7543075D02*
X1014526Y7544622D01*
X1014288Y7541937D02*
X1014387Y7543075D01*
X1014193Y7540818D02*
X1014288Y7541937D01*
X1014102Y7539718D02*
X1014193Y7540818D01*
X1014014Y7538638D02*
X1014102Y7539718D01*
X1013930Y7537577D02*
X1014014Y7538638D01*
X1013850Y7536536D02*
X1013930Y7537577D01*
X1013773Y7535515D02*
X1013850Y7536536D01*
X1013700Y7534514D02*
X1013773Y7535515D01*
X1013630Y7533533D02*
X1013700Y7534514D01*
X1013564Y7532572D02*
X1013630Y7533533D01*
X1013521Y7531943D02*
X1013564Y7532572D01*
X1013480Y7531323D02*
X1013521Y7531943D01*
X1013441Y7530712D02*
X1013480Y7531323D01*
X1013402Y7530111D02*
X1013441Y7530712D01*
X1013366Y7529519D02*
X1013402Y7530111D01*
X1013142Y7525639D02*
X1013170Y7526165D01*
X1013330Y7528936D02*
X1013366Y7529519D01*
X1013295Y7528363D02*
X1013330Y7528936D01*
X1013262Y7527799D02*
X1013295Y7528363D01*
X1013231Y7527245D02*
X1013262Y7527799D01*
X1013200Y7526700D02*
X1013231Y7527245D01*
X1013170Y7526165D02*
X1013200Y7526700D01*
X1013115Y7525123D02*
X1013142Y7525639D01*
X1013089Y7524617D02*
X1013115Y7525123D01*
X1013065Y7524121D02*
X1013089Y7524617D01*
X1013041Y7523634D02*
X1013065Y7524121D01*
X1013018Y7523158D02*
X1013041Y7523634D01*
X1012996Y7522691D02*
X1013018Y7523158D01*
X1012937Y7521351D02*
X1012956Y7521788D01*
X1012976Y7522235D02*
X1012996Y7522691D01*
X1012956Y7521788D02*
X1012976Y7522235D01*
X1012919Y7520925D02*
X1012937Y7521351D01*
X1012911Y7520715D02*
X1012919Y7520925D01*
X1012902Y7520509D02*
X1012911Y7520715D01*
X1012894Y7520304D02*
X1012902Y7520509D01*
X1012886Y7520103D02*
X1012894Y7520304D01*
X1012879Y7519903D02*
X1012886Y7520103D01*
X1012871Y7519707D02*
X1012879Y7519903D01*
X1012864Y7519513D02*
X1012871Y7519707D01*
X1012857Y7519322D02*
X1012864Y7519513D01*
X1012850Y7519133D02*
X1012857Y7519322D01*
X1012831Y7518582D02*
X1012837Y7518763D01*
X1012844Y7518946D02*
X1012850Y7519133D01*
X1012837Y7518763D02*
X1012844Y7518946D01*
X1012825Y7518403D02*
X1012831Y7518582D01*
X1012819Y7518228D02*
X1012825Y7518403D01*
X1012813Y7518055D02*
X1012819Y7518228D01*
X1012808Y7517884D02*
X1012813Y7518055D01*
X1012803Y7517716D02*
X1012808Y7517884D01*
X1012798Y7517551D02*
X1012803Y7517716D01*
X1012792Y7517388D02*
X1012798Y7517551D01*
X1012788Y7517228D02*
X1012792Y7517388D01*
X1012783Y7517071D02*
X1012788Y7517228D01*
X1012779Y7516916D02*
X1012783Y7517071D01*
X1012766Y7516469D02*
X1012770Y7516615D01*
X1012774Y7516764D02*
X1012779Y7516916D01*
X1012770Y7516615D02*
X1012774Y7516764D01*
X1012763Y7516325D02*
X1012766Y7516469D01*
X1012759Y7516184D02*
X1012763Y7516325D01*
X1012755Y7516045D02*
X1012759Y7516184D01*
X1012752Y7515910D02*
X1012755Y7516045D01*
X1012749Y7515777D02*
X1012752Y7515910D01*
X1012745Y7515646D02*
X1012749Y7515777D01*
X1012742Y7515519D02*
X1012745Y7515646D01*
X1012740Y7515394D02*
X1012742Y7515519D01*
X1012737Y7515272D02*
X1012740Y7515394D01*
X1012734Y7515153D02*
X1012737Y7515272D01*
X1012727Y7514811D02*
X1012729Y7514922D01*
X1012732Y7515036D02*
X1012734Y7515153D01*
X1012729Y7514922D02*
X1012732Y7515036D01*
X1012725Y7514703D02*
X1012727Y7514811D01*
X1012723Y7514597D02*
X1012725Y7514703D01*
X1012721Y7514494D02*
X1012723Y7514597D01*
X1012720Y7514395D02*
X1012721Y7514494D01*
X1012718Y7514297D02*
X1012720Y7514395D01*
X1012716Y7514203D02*
X1012718Y7514297D01*
X1012715Y7514112D02*
X1012716Y7514203D01*
X1012713Y7514023D02*
X1012715Y7514112D01*
X1012712Y7513937D02*
X1012713Y7514023D01*
X1705854Y1049333D02*
X1715295Y1046928D01*
X1773749Y1034090D02*
X1783795Y1032223D01*
X1715295Y1046928D02*
X1724822Y1044597D01*
X1734434Y1042342D01*
X1744133Y1040162D01*
X1753917Y1038060D01*
X1763789Y1036036D01*
X1773749Y1034090D01*
X1783795Y1032223D02*
X1793930Y1030437D01*
X1804153Y1028731D01*
X1814465Y1027107D01*
X1824866Y1025565D01*
X1832726Y1024464D01*
X1048965Y1756546D02*
X1053763Y1737752D01*
X1058199Y1721352D01*
X1062536Y1706100D01*
X1066710Y1692068D01*
X1070661Y1679314D01*
X1074799Y1666450D01*
X1079130Y1653485D01*
X1083145Y1641883D01*
X1211877Y1387885D02*
X1220175Y1376257D01*
X1228700Y1364700D01*
X1237456Y1353219D01*
X1560043Y1100015D02*
X1574216Y1093856D01*
X1586556Y1088729D01*
X1599076Y1083745D01*
X1611777Y1078907D01*
X1622500Y1074988D01*
X1633350Y1071174D01*
X1644329Y1067465D01*
X1655436Y1063864D01*
X1666672Y1060372D01*
X1678039Y1056990D01*
X1687226Y1054365D01*
X1696498Y1051813D01*
X1705854Y1049333D01*
X1832726Y1024464D02*
X1840636Y1023409D01*
X1856609Y1021442D02*
X1864671Y1020531D01*
X1840636Y1023409D02*
X1848597Y1022402D01*
X1856609Y1021442D01*
X1864671Y1020531D02*
X1872785Y1019668D01*
X1880951Y1018853D01*
X1889167Y1018088D01*
X1897436Y1017372D01*
X1905756Y1016706D01*
X1914129Y1016089D01*
X1922553Y1015523D01*
X1931030Y1015008D01*
X1939559Y1014544D01*
X1204800Y1398113D02*
X1211877Y1387885D01*
X1132523Y1523199D02*
X1137700Y1512700D01*
X1143024Y1502201D01*
X1148497Y1491705D01*
X1154121Y1481219D01*
X1159898Y1470744D01*
X1165830Y1460286D01*
X1171920Y1449848D01*
X1178169Y1439435D01*
X1184580Y1429051D01*
X1191154Y1418700D01*
X1197893Y1408386D01*
X1204800Y1398113D01*
%TF.MD5,c8818edc73b5acedaa83fad4a69aed11*%
M02*
