%TF.GenerationSoftware,Altium Limited,Altium Designer,22.0.2 (36)*%
G04 Layer_Physical_Order=2*
G04 Layer_Color=16711680*
%FSLAX45Y45*%
%MOMM*%
%TF.SameCoordinates,D2D0E374-18DE-4B15-8EA8-0B9E4DC8859C*%
%TF.FilePolarity,Positive*%
%TF.FileFunction,Copper,L2,Bot,Signal*%
%TF.Part,Single*%
G01*
G75*
%TA.AperFunction,Conductor*%
%ADD28C,0.25400*%
%ADD29C,0.50000*%
%TA.AperFunction,ComponentPad*%
G04:AMPARAMS|DCode=32|XSize=2.1mm|YSize=1mm|CornerRadius=0.25mm|HoleSize=0mm|Usage=FLASHONLY|Rotation=90.000|XOffset=0mm|YOffset=0mm|HoleType=Round|Shape=RoundedRectangle|*
%AMROUNDEDRECTD32*
21,1,2.10000,0.50000,0,0,90.0*
21,1,1.60000,1.00000,0,0,90.0*
1,1,0.50000,0.25000,0.80000*
1,1,0.50000,0.25000,-0.80000*
1,1,0.50000,-0.25000,-0.80000*
1,1,0.50000,-0.25000,0.80000*
%
%ADD32ROUNDEDRECTD32*%
G04:AMPARAMS|DCode=33|XSize=1.6mm|YSize=1mm|CornerRadius=0.25mm|HoleSize=0mm|Usage=FLASHONLY|Rotation=90.000|XOffset=0mm|YOffset=0mm|HoleType=Round|Shape=RoundedRectangle|*
%AMROUNDEDRECTD33*
21,1,1.60000,0.50000,0,0,90.0*
21,1,1.10000,1.00000,0,0,90.0*
1,1,0.50000,0.25000,0.55000*
1,1,0.50000,0.25000,-0.55000*
1,1,0.50000,-0.25000,-0.55000*
1,1,0.50000,-0.25000,0.55000*
%
%ADD33ROUNDEDRECTD33*%
%ADD34R,2.00000X2.00000*%
%ADD35O,1.50000X2.30000*%
G04:AMPARAMS|DCode=36|XSize=1.6mm|YSize=2mm|CornerRadius=0.4mm|HoleSize=0mm|Usage=FLASHONLY|Rotation=90.000|XOffset=0mm|YOffset=0mm|HoleType=Round|Shape=RoundedRectangle|*
%AMROUNDEDRECTD36*
21,1,1.60000,1.20000,0,0,90.0*
21,1,0.80000,2.00000,0,0,90.0*
1,1,0.80000,0.60000,0.40000*
1,1,0.80000,0.60000,-0.40000*
1,1,0.80000,-0.60000,-0.40000*
1,1,0.80000,-0.60000,0.40000*
%
%ADD36ROUNDEDRECTD36*%
%ADD37C,1.80000*%
%ADD38C,3.04800*%
%ADD39R,1.75000X1.75000*%
%ADD40R,1.20000X2.00000*%
%ADD41O,1.70000X3.00000*%
%TA.AperFunction,ViaPad*%
%ADD42C,0.76200*%
%ADD43C,1.27000*%
%TA.AperFunction,Conductor*%
%ADD44C,2.50000*%
%ADD45C,3.00000*%
D28*
X7681250Y3470000D02*
X7690000Y3478750D01*
Y4300000D01*
X7820000Y4430000D01*
X8190000D01*
X7100000Y4517500D02*
X10175000D01*
X8485000Y4747500D02*
X9287500D01*
X7240000Y4627500D02*
X10372500D01*
X7080000Y4787500D02*
Y5115000D01*
X6932500Y4685000D02*
Y5807500D01*
X7080000Y4787500D02*
X7240000Y4627500D01*
X9287500Y4747500D02*
X9290000Y4750000D01*
X6932500Y4685000D02*
X7100000Y4517500D01*
X10372500Y4627500D02*
X10582500Y4417500D01*
X10175000Y4517500D02*
X10345000Y4347500D01*
X9283157Y4855000D02*
X9286862Y4858705D01*
X7767500Y4855000D02*
X9283157D01*
X6565000Y3230000D02*
X7487500D01*
X10345000Y3247179D02*
Y4347500D01*
X10582500Y3392000D02*
Y4417500D01*
X10345000Y3247179D02*
X10454179Y3138000D01*
X10582500D01*
X7331999Y1131620D02*
Y1549619D01*
X6467999Y1131620D02*
Y1549619D01*
D29*
X9292500Y6179482D02*
Y6495000D01*
Y6179482D02*
X9294533Y6177449D01*
X9292500Y6495000D02*
X9295000Y6497500D01*
X10175000Y5602500D02*
X10322500D01*
X10055000Y5722500D02*
X10175000Y5602500D01*
X9621500Y5722500D02*
X10055000D01*
D32*
X6467999Y1549619D02*
D03*
X7331999D02*
D03*
D33*
Y1131620D02*
D03*
X6467999D02*
D03*
D34*
X10322500Y4827800D02*
D03*
Y5602500D02*
D03*
D35*
X8297500Y3377500D02*
D03*
Y3961700D02*
D03*
X6030000Y2648300D02*
D03*
Y3232500D02*
D03*
D36*
X10582500Y2630000D02*
D03*
Y2884000D02*
D03*
Y3392000D02*
D03*
Y3138000D02*
D03*
D37*
X10030000Y7180000D02*
D03*
Y7530000D02*
D03*
Y7850000D02*
D03*
X9470000Y7180000D02*
D03*
Y7530000D02*
D03*
Y7850000D02*
D03*
X10495000Y6397762D02*
D03*
Y6651762D02*
D03*
X7797500Y6852500D02*
D03*
Y6598500D02*
D03*
D38*
X1744541Y7289093D02*
D03*
X2252542D02*
D03*
X5046542D02*
D03*
X4538541D02*
D03*
X3649542D02*
D03*
X3141541D02*
D03*
X8771500Y7610000D02*
D03*
X8263500D02*
D03*
D39*
X1744542Y5249593D02*
D03*
X2252542Y6519593D02*
D03*
Y5503593D02*
D03*
X1236542D02*
D03*
Y6519593D02*
D03*
X3141542Y5249593D02*
D03*
X3649542Y6519593D02*
D03*
Y5503593D02*
D03*
X2633542D02*
D03*
Y6519593D02*
D03*
X4030542D02*
D03*
Y5503593D02*
D03*
X5046542D02*
D03*
Y6519593D02*
D03*
X4538542Y5249593D02*
D03*
D40*
X1636542Y3343670D02*
D03*
X1890542D02*
D03*
X1636542Y4105670D02*
D03*
X1890542D02*
D03*
X3033542Y3343670D02*
D03*
X3287542D02*
D03*
X3033542Y4105670D02*
D03*
X3287542D02*
D03*
X4430542Y3343670D02*
D03*
X4684542D02*
D03*
X4430542Y4105670D02*
D03*
X4684542D02*
D03*
D41*
X9621500Y5722500D02*
D03*
X9101104D02*
D03*
X9367500D02*
D03*
D42*
X7681250Y3470000D02*
D03*
X9290000Y4750000D02*
D03*
X7487500Y3230000D02*
D03*
X8190000Y4430000D02*
D03*
X6900000Y3120000D02*
D03*
X6565000Y3230000D02*
D03*
X9294533Y6177449D02*
D03*
X9295000Y6497500D02*
D03*
X7080000Y5115000D02*
D03*
X6932500Y5807500D02*
D03*
X8485000Y4747500D02*
D03*
X9286862Y4858705D02*
D03*
X7767500Y4855000D02*
D03*
D43*
X6480000Y5810000D02*
D03*
X1230000Y4290000D02*
D03*
X5970000Y1570000D02*
D03*
X4060000Y4280000D02*
D03*
X2610000Y4290000D02*
D03*
D44*
X5046542Y6519593D02*
Y7289093D01*
X4538541Y5249593D02*
Y7289093D01*
Y5249593D02*
X4538542Y5249593D01*
X3649542Y6519593D02*
Y7289093D01*
X3141542Y5249593D02*
Y7289092D01*
X2252542Y6519593D02*
Y7289093D01*
X1744542Y5249593D02*
Y7289092D01*
D45*
X3141541Y7289093D02*
X3141542Y7289092D01*
X1744541Y7289093D02*
X1744542Y7289092D01*
%TF.MD5,f4535889627184cb9a9494a8654ce3b1*%
M02*
