%TF.GenerationSoftware,Altium Limited,Altium Designer,22.0.2 (36)*%
G04 Layer_Color=32896*
%FSLAX45Y45*%
%MOMM*%
%TF.SameCoordinates,D2D0E374-18DE-4B15-8EA8-0B9E4DC8859C*%
%TF.FilePolarity,Positive*%
%TF.FileFunction,Other,Mechanical_8*%
%TF.Part,Single*%
G01*
G75*
%TA.AperFunction,NonConductor*%
%ADD63C,0.10000*%
D63*
X1998542Y7289093D02*
X2048542D01*
X1998542Y7239092D02*
Y7289093D01*
X1948541D02*
X1998542D01*
Y7339093D01*
X1744541Y7289093D02*
X1794541D01*
X1744541Y7239092D02*
Y7289093D01*
X1694541D02*
X1744541D01*
Y7339093D01*
X2252542Y7289093D02*
X2302542D01*
X2252542Y7239092D02*
Y7289093D01*
X2202542D02*
X2252542D01*
Y7339093D01*
X5046542Y7289093D02*
Y7339093D01*
X4996542Y7289093D02*
X5046542D01*
Y7239092D02*
Y7289093D01*
X5096542D01*
X4538541D02*
Y7339093D01*
X4488541Y7289093D02*
X4538541D01*
Y7239092D02*
Y7289093D01*
X4588541D01*
X4792542D02*
Y7339093D01*
X4742541Y7289093D02*
X4792542D01*
Y7239092D02*
Y7289093D01*
X4842542D01*
X3649542D02*
Y7339093D01*
X3599542Y7289093D02*
X3649542D01*
Y7239092D02*
Y7289093D01*
X3699542D01*
X3141541D02*
Y7339093D01*
X3091541Y7289093D02*
X3141541D01*
Y7239092D02*
Y7289093D01*
X3191541D01*
X3395542D02*
Y7339093D01*
X3345541Y7289093D02*
X3395542D01*
Y7239092D02*
Y7289093D01*
X3445542D01*
X8771500Y7610000D02*
Y7660000D01*
X8721500Y7610000D02*
X8771500D01*
Y7560000D02*
Y7610000D01*
X8821500D01*
X8263500D02*
Y7660000D01*
X8213500Y7610000D02*
X8263500D01*
Y7560000D02*
Y7610000D01*
X8313500D01*
X8517500D02*
Y7660000D01*
X8467500Y7610000D02*
X8517500D01*
Y7560000D02*
Y7610000D01*
X8567500D01*
%TF.MD5,16b7582251b2495c0dc359a9b233707b*%
M02*
